<svg xmlns="http://www.w3.org/2000/svg" viewBox="0 0 64 64">
  <circle cx="32" cy="32" r="32" fill="#E8714A"/>
  <polygon points="32,4 35,26 32,22 29,26" fill="#FFD166"/>
  <polygon points="32,60 35,38 32,42 29,38" fill="#FFD166"/>
  <polygon points="4,32 26,35 22,32 26,29" fill="#FFD166"/>
  <polygon points="60,32 38,35 42,32 38,29" fill="#FFD166"/>
  <polygon points="9,9 26,28 22,24 28,22" fill="#FFD166"/>
  <polygon points="55,55 38,36 42,40 36,42" fill="#FFD166"/>
  <polygon points="55,9 36,26 40,22 37,28" fill="#FFD166"/>
  <polygon points="9,55 28,38 24,42 27,36" fill="#FFD166"/>
  <circle cx="32" cy="32" r="13" fill="#FFD166"/>
  <circle cx="27" cy="30" r="2" fill="#C8600A"/>
  <circle cx="37" cy="30" r="2" fill="#C8600A"/>
  <path d="M26,35 Q32,41 38,35" stroke="#C8600A" stroke-width="2" stroke-linecap="round" fill="none"/>
</svg>
